<?xml version="1.0" encoding="utf-8"?>
<!-- Generator: Adobe Illustrator 25.2.0, SVG Export Plug-In . SVG Version: 6.00 Build 0)  -->
<!DOCTYPE svg PUBLIC "-//W3C//DTD SVG 1.1//EN" "http://www.w3.org/Graphics/SVG/1.1/DTD/svg11.dtd" [
	<!ENTITY ns_extend "http://ns.adobe.com/Extensibility/1.0/">
	<!ENTITY ns_ai "http://ns.adobe.com/AdobeIllustrator/10.0/">
	<!ENTITY ns_graphs "http://ns.adobe.com/Graphs/1.0/">
	<!ENTITY ns_vars "http://ns.adobe.com/Variables/1.0/">
	<!ENTITY ns_imrep "http://ns.adobe.com/ImageReplacement/1.0/">
	<!ENTITY ns_sfw "http://ns.adobe.com/SaveForWeb/1.0/">
	<!ENTITY ns_custom "http://ns.adobe.com/GenericCustomNamespace/1.0/">
	<!ENTITY ns_adobe_xpath "http://ns.adobe.com/XPath/1.0/">
]>
<svg version="1.1" id="Слой_1" xmlns:x="&ns_extend;" xmlns:i="&ns_ai;" xmlns:graph="&ns_graphs;"
	 xmlns="http://www.w3.org/2000/svg" xmlns:xlink="http://www.w3.org/1999/xlink" x="0px" y="0px" viewBox="0 0 35.5 38.1"
	 style="enable-background:new 0 0 35.5 38.1;" xml:space="preserve">
<style type="text/css">
	.st0{fill-rule:evenodd;clip-rule:evenodd;fill:#80407A;}
</style>
<metadata>
	<sfw  xmlns="&ns_sfw;">
		<slices></slices>
		<sliceSourceBounds  bottomLeftOrigin="true" height="37.9" width="35.5" x="-0.2" y="0.1"></sliceSourceBounds>
	</sfw>
</metadata>
<path id="Timer" class="st0" d="M31.7,6.8c0.1-0.1,0.2-0.3,0.3-0.4L33.5,8c0.5,0.5,1.2,0.5,1.7,0c0.5-0.5,0.5-1.2,0-1.7l-4.7-4.8
	c-0.4-0.5-1.2-0.5-1.6,0c0,0,0,0,0,0c-0.5,0.5-0.5,1.2,0,1.7l1.6,1.6C30.3,4.9,30.1,5,30,5.1l-1.1,1.1C26,4,22.6,2.7,19,2.4V1.2
	C19,0.5,18.5,0,17.9,0s-1.2,0.5-1.2,1.2v1.2C6.9,3-0.6,11.5,0,21.2C0.6,31,9,38.5,18.8,37.9c9.8-0.6,17.2-9,16.7-18.8
	c-0.3-4.2-2-8.2-4.9-11.2L31.7,6.8z M17.9,35.7C9.3,35.8,2.3,28.9,2.3,20.4C2.2,11.8,9,4.8,17.6,4.8c8.5-0.1,15.5,6.8,15.6,15.3
	c0,0.1,0,0.1,0,0.2C33.2,28.7,26.4,35.6,17.9,35.7z M19,16.9V8.3c0-0.7-0.5-1.2-1.2-1.2s-1.2,0.5-1.2,1.2v8.6
	c-1.8,0.6-2.8,2.7-2.2,4.5c0.6,1.8,2.7,2.8,4.5,2.2c1.8-0.6,2.8-2.7,2.2-4.5C20.8,18,20.1,17.2,19,16.9L19,16.9z M19,21.4h-2.4V19
	H19V21.4z"/>
</svg>
