<?xml version="1.0" encoding="utf-8"?>
<!-- Generator: Adobe Illustrator 25.2.0, SVG Export Plug-In . SVG Version: 6.00 Build 0)  -->
<!DOCTYPE svg PUBLIC "-//W3C//DTD SVG 1.1//EN" "http://www.w3.org/Graphics/SVG/1.1/DTD/svg11.dtd" [
	<!ENTITY ns_extend "http://ns.adobe.com/Extensibility/1.0/">
	<!ENTITY ns_ai "http://ns.adobe.com/AdobeIllustrator/10.0/">
	<!ENTITY ns_graphs "http://ns.adobe.com/Graphs/1.0/">
	<!ENTITY ns_vars "http://ns.adobe.com/Variables/1.0/">
	<!ENTITY ns_imrep "http://ns.adobe.com/ImageReplacement/1.0/">
	<!ENTITY ns_sfw "http://ns.adobe.com/SaveForWeb/1.0/">
	<!ENTITY ns_custom "http://ns.adobe.com/GenericCustomNamespace/1.0/">
	<!ENTITY ns_adobe_xpath "http://ns.adobe.com/XPath/1.0/">
]>
<svg version="1.1" id="Слой_1" xmlns:x="&ns_extend;" xmlns:i="&ns_ai;" xmlns:graph="&ns_graphs;"
	 xmlns="http://www.w3.org/2000/svg" xmlns:xlink="http://www.w3.org/1999/xlink" x="0px" y="0px" viewBox="0 0 496 512"
	 style="enable-background:new 0 0 496 512;" xml:space="preserve">
<metadata>
	<sfw  xmlns="&ns_sfw;">
		<slices></slices>
		<sliceSourceBounds  bottomLeftOrigin="true" height="496" width="496" x="0" y="2"></sliceSourceBounds>
	</sfw>
</metadata>
<path d="M248,14C111,14,0,125,0,262s111,248,248,248s248-111,248-248S385,14,248,14z M407.8,177.8c-6.8,8.2-14.6,15.6-23.1,22
	c-1,0.8-1.6,1.9-1.5,3.2c0.1,2.2,0.1,4.4,0.1,6.5c0,86.7-66,186.6-186.6,186.6c-31.4,0-61-7.7-86.9-21.3c-3.6-1.9-2.2-7.3,1.8-7.3
	c0.1,0,0.1,0,0.2,0c27,0,52.1-8,73-21.9c2.9-1.9,1.9-6.4-1.5-7c-22.1-3.8-40.5-18.5-49.1-38.4c-1.2-2.7,0.9-5.6,3.9-5.4
	c2.2,0.2,4.4,0.3,6.6,0.3c4.1,0,5.3-5.6,1.6-7.3c-22.1-10.6-37.3-33.1-37.3-59.3v-0.8c4.8,2.7,10.1,4.8,15.6,6.3
	c3.8,1,6.5-3.6,3.7-6.4c-12-12.2-19-28.7-18.9-46.1c0-10.1,2.2-19.5,6.2-27.9c1.2-2.5,4.6-2.9,6.4-0.8c31.2,36.2,76.2,60,126.6,63.9
	c2.4,0.2,4.5-1.9,4.1-4.4c-6.1-42.3,26.2-75.9,64.8-75.9c18.1,0,34.5,7.3,46.4,19.2c0.9,0.9,2.2,1.4,3.5,1.1
	c10.5-2.2,20.6-5.7,30.1-10.3c3.3-1.6,6.9,1.9,5.1,5.2c-3.2,6.1-7.4,11.7-12.4,16.5c-2.8,2.7-0.3,7.4,3.5,6.5
	c3.3-0.8,6.6-1.8,9.9-2.8C407.3,170.5,410.3,174.9,407.8,177.8z"/>
</svg>
